<svg width="50" height="51" viewBox="0 0 50 51" fill="none" xmlns="http://www.w3.org/2000/svg">
<g clip-path="url(#clip0_751_13324)">
<path d="M29.7654 9.65611C29.4504 10.573 29.1342 11.4894 28.8181 12.4057C28.0045 14.7638 27.1911 17.1213 26.398 19.4864L26.3977 19.4871C26.3756 19.5534 26.3486 19.6163 26.3173 19.6757C26.2259 19.6205 26.1346 19.5646 26.0433 19.5078L26.043 19.5076C25.5521 19.2026 24.9986 19.1221 24.4874 19.2318C24.3945 19.0385 24.3034 18.8446 24.2141 18.6502C24.9967 16.3187 25.7981 13.9964 26.6003 11.6718C26.9233 10.7358 27.2465 9.7993 27.5686 8.8617L27.5686 8.8617L27.57 8.85754C27.7847 8.21434 28.4618 7.8933 29.058 8.11148C29.653 8.3292 29.9841 9.01904 29.7654 9.65611ZM29.7654 9.65611L30.2336 9.82987M29.7654 9.65611C29.7654 9.65614 29.7654 9.65618 29.7654 9.65622L30.2336 9.82987M30.2336 9.82987C29.9188 10.7462 29.603 11.6614 29.2874 12.5762L29.2871 12.5769L29.2869 12.5776L29.2867 12.5782L29.2864 12.5789L29.2862 12.5795L29.286 12.5801L29.2858 12.5807L29.2856 12.5813L29.2854 12.5819L29.2852 12.5825L29.2852 12.5826L29.2851 12.5827L29.2851 12.5827L29.2851 12.5828L29.2851 12.5828L29.2851 12.5829C28.4718 14.94 27.6596 17.294 26.8673 19.6566L27.1004 8.68794C27.4005 7.78919 28.3552 7.32127 29.2186 7.6372C30.0819 7.95314 30.5393 8.93921 30.2336 9.82987ZM20.0765 6.93441C20.4539 11.0652 21.4943 14.9994 23.1677 18.7343C23.1574 18.8009 23.1502 18.8675 23.1458 18.9341C22.9608 18.9395 22.7734 18.9699 22.5874 19.0278C21.9708 19.2167 21.5019 19.6634 21.2539 20.218C19.3503 16.098 18.1776 11.7572 17.7506 7.18636C17.6904 6.5029 18.1748 5.91143 18.8106 5.84746C19.4474 5.78741 20.0143 6.26735 20.0765 6.93441ZM22.8916 19.9931C23.0287 19.9503 23.1677 19.9355 23.303 19.9456C23.221 20.0428 23.1462 20.1485 23.08 20.2624C22.8476 20.6619 22.7517 21.1108 22.78 21.5485C22.5412 21.4884 22.3027 21.4275 22.0646 21.3657C21.9653 20.7666 22.3129 20.17 22.8889 19.9939L22.8889 19.9939L22.8916 19.9931ZM12.874 19.7338C15.5991 20.5712 18.3271 21.4095 21.0947 22.1479C21.1734 22.299 21.2668 22.4371 21.3722 22.5613C21.4252 22.7446 21.4784 22.9279 21.5316 23.1111C21.071 23.5373 20.6197 23.9737 20.1759 24.4175C17.4686 23.6861 14.7968 22.8655 12.1101 22.0402C10.6891 21.6037 9.2639 21.166 7.82712 20.7395L7.82674 20.7394C7.21707 20.559 6.85015 19.9006 7.03212 19.2417C7.21479 18.5803 7.86636 18.2194 8.47779 18.4004L8.47802 18.4004C9.94626 18.8342 11.4097 19.2839 12.874 19.7338ZM21.3073 24.7172C21.3165 24.7082 21.3257 24.6992 21.3349 24.6902C21.3326 24.701 21.3302 24.7118 21.3279 24.7225C21.321 24.7208 21.3142 24.719 21.3073 24.7172ZM20.485 25.5387C20.6913 25.5934 20.8978 25.6476 21.1045 25.7011C20.8104 26.9399 20.4792 28.1538 20.1163 29.3559C19.4779 30.0487 18.8487 30.7478 18.222 31.4442C18.0769 31.6054 17.9319 31.7666 17.7869 31.9274C15.7161 34.2255 13.6533 36.473 11.3235 38.4001C10.8165 38.8155 10.0914 38.7267 9.69557 38.2143C9.29194 37.6919 9.37148 36.9162 9.87874 36.5L9.88012 36.4988C12.2581 34.5329 14.3507 32.2473 16.4037 29.965C16.5491 29.8034 16.6942 29.6419 16.8392 29.4804C18.0434 28.1401 19.2398 26.8084 20.485 25.5387ZM21.6056 27.7759C21.7689 27.1715 21.9239 26.5622 22.07 25.9465C22.1747 25.9726 22.2796 25.9985 22.3844 26.0243C22.4574 26.2726 22.5303 26.521 22.6031 26.7692C22.2664 27.1007 21.9342 27.4366 21.6056 27.7759ZM26.5072 20.9392C26.656 21.0228 26.8052 21.1048 26.9551 21.1856C26.8704 21.5233 26.8627 21.8824 26.9413 22.233C26.4819 22.0064 26.0255 21.7781 25.5725 21.5481C25.5494 21.4683 25.5262 21.3884 25.5031 21.3086C25.8651 21.2739 26.2103 21.145 26.5072 20.9392ZM25.9542 22.8578C26.801 23.2804 27.6587 23.697 28.5241 24.107C28.2042 24.2966 27.805 24.3229 27.4547 24.1515L27.4527 24.1505C27.0041 23.9335 26.5681 23.7157 26.1396 23.4906C26.0777 23.2796 26.0159 23.0687 25.9542 22.8578ZM23.7908 21.167C23.8159 21.0431 23.8601 20.921 23.9251 20.8051C23.9974 20.8669 24.0742 20.9243 24.1552 20.9766C24.1596 21.0251 24.1612 21.0737 24.16 21.122C24.0354 21.1261 23.9119 21.1413 23.7908 21.167ZM20.9974 29.8874C21.6309 29.2026 22.271 28.5279 22.9255 27.8709C23.1092 28.5002 23.2918 29.1294 23.4725 29.7589C22.6873 32.4392 21.7491 35.0534 20.7066 37.7375L20.7058 37.7394C20.4617 38.3757 19.7822 38.6643 19.1872 38.4209C18.6029 38.1729 18.3037 37.4727 18.5498 36.8476L18.5507 36.8452C19.4542 34.5146 20.2833 32.2255 20.9974 29.8874ZM23.9766 27.9464C23.893 27.6592 23.8091 27.372 23.7251 27.085C23.9274 26.8905 24.1313 26.698 24.337 26.5075C24.2221 26.9906 24.1019 27.47 23.9766 27.9464ZM24.5056 29.7777C24.826 28.6667 25.1208 27.5423 25.3864 26.3955C25.6096 26.5046 25.8334 26.6134 26.0578 26.7217C27.1287 30.3853 28.1688 34.0474 29.0151 37.7622L29.0155 37.7637C29.1668 38.4187 28.7707 39.0779 28.1423 39.2343C27.516 39.3851 26.8927 38.9885 26.7424 38.3396C26.7424 38.3394 26.7423 38.3391 26.7423 38.3389L26.2599 38.4462L24.5056 29.7777ZM26.8784 26.008C26.7612 25.608 26.6439 25.2082 26.5265 24.8086C26.6961 24.8929 26.8669 24.9765 27.039 25.0598C27.9093 25.4849 28.9093 25.2593 29.5269 24.5775C33.3241 26.3422 37.2488 27.9758 41.0569 29.4213L41.0573 29.4214C41.6473 29.6448 41.9726 30.3409 41.7464 30.9811C41.5204 31.6205 40.8367 31.9354 40.245 31.7118C35.8181 30.0268 31.2382 28.0956 26.8784 26.008ZM25.6783 25.4266C25.6638 25.4195 25.6494 25.4124 25.6349 25.4053C25.6437 25.3929 25.6524 25.3803 25.661 25.3676C25.6667 25.3873 25.6725 25.407 25.6783 25.4266ZM23.7102 24.4422C23.2974 24.2307 23.0527 23.788 23.0632 23.3271C23.2692 23.3221 23.4762 23.2865 23.6777 23.2184C23.7242 23.2527 23.7723 23.2855 23.822 23.3165L23.8225 23.3167C24.0624 23.466 24.3021 23.6096 24.5421 23.7488C24.7053 24.0975 24.6996 24.5108 24.528 24.8562C24.2542 24.7188 23.9815 24.5808 23.7102 24.4422ZM25.4168 20.3008C25.3454 20.3092 25.2729 20.3107 25.2004 20.3051C25.1882 20.2753 25.1755 20.2459 25.1622 20.2169C25.2488 20.2344 25.3342 20.2622 25.4168 20.3008Z" fill="#1E293B" stroke="#1E293B"/>
</g>
<defs>
<clipPath id="clip0_751_13324">
<rect width="38.4347" height="37.4105" fill="white" transform="matrix(0.917693 0.397291 -0.374576 0.927196 14.0601 0.388428)"/>
</clipPath>
</defs>
</svg>
