<svg width="152" height="139" viewBox="0 0 152 139" fill="none" xmlns="http://www.w3.org/2000/svg">
<path d="M26.4765 23.7796C32.2208 23.9063 47.6334 29.8922 48.8041 43.4414M48.8041 43.4414C49.1379 47.3058 49.5392 52.3249 45.8517 56.5914C41.9947 61.0539 31.7713 53.3121 48.8041 43.4414ZM48.8041 43.4414C58.4908 38.17 80.0939 33.1398 89.0124 55.19C95.0851 72.7052 89.7343 95.7163 87.265 110.73C95.3315 91.9417 119.138 67.8191 133.225 63.7971" stroke="#1E293B" stroke-width="3"/>
<path d="M29.3517 30.1807L26.708 23.3748L33.2957 20.7891L32.4798 18.6887L23.859 22.0724L27.3186 30.9787L29.3517 30.1807Z" fill="#1E293B"/>
<path d="M117.719 130.605C117.598 128.606 116.69 123.307 114.027 118.096" stroke="#1E293B" stroke-width="3"/>
<path d="M149.805 130.401C144.644 124.661 131.569 112.424 120.554 109.39" stroke="#1E293B" stroke-width="3"/>
<path d="M73.173 15.8783C75.7846 15.7257 80.913 21.4035 79.3496 27.0446" stroke="#1E293B" stroke-width="3"/>
</svg>
