<svg width="28" height="29" viewBox="0 0 28 29" fill="none" xmlns="http://www.w3.org/2000/svg">
<g clip-path="url(#clip0_751_13313)">
<path d="M13.3587 27.8087L11.7803 22.9886C10.9086 20.3265 8.87943 18.157 6.20727 17.2194L1.55103 15.5855C0.596843 15.2507 0.597002 13.8483 1.55103 13.5135L6.20727 11.8795C8.77884 10.9772 10.8745 8.8765 11.7803 6.11035L13.3587 1.2903C13.6822 0.302537 15.0369 0.302756 15.3603 1.2903L16.9387 6.11035C17.8104 8.77243 19.8396 10.9419 22.5118 11.8795L27.168 13.5135C28.1222 13.8484 28.122 15.2507 27.168 15.5855L22.5118 17.2194C19.9403 18.1217 17.8445 20.2225 16.9387 22.9886L15.3603 27.8087C15.0368 28.7965 13.6821 28.7962 13.3587 27.8087ZM5.18182 14.5494L6.88579 15.1473C10.0679 16.264 12.6611 18.8633 13.782 22.2862L14.3595 24.0501L14.9371 22.2862C16.0158 18.9921 18.5268 16.3077 21.8333 15.1473L23.5372 14.5494L21.8333 13.9515C18.6512 12.8349 16.058 10.2355 14.9371 6.81265L14.3595 5.0487L13.7819 6.81265C12.7033 10.1067 10.1923 12.7912 6.88579 13.9515L5.18182 14.5494Z" fill="#1E293B"/>
</g>
<defs>
<clipPath id="clip0_751_13313">
<rect width="27.0481" height="28" fill="white" transform="translate(0.835693 0.548828)"/>
</clipPath>
</defs>
</svg>
